<?xml version="1.0" encoding="utf-8"?>
<svg version="1.0" width="700.000000pt" height="700.000000pt" viewBox="0 0 700.000000 700.000000" preserveAspectRatio="xMidYMid meet" xmlns="http://www.w3.org/2000/svg">
  <defs/>
  <g transform="translate(0.000000,700.000000) scale(0.100000,-0.100000)" fill="#000000" stroke="none">
    <path d="M1615 5586 c-62 -29 -117 -86 -147 -151 l-23 -50 -3 -557 c-1 -307 0&#10;-558 3 -558 3 0 47 7 97 16 67 12 127 15 216 11 l122 -5 0 444 0 444 2188 -2&#10;2187 -3 3 -1382 2 -1383 -1237 -1 -1238 0 -208 -220 -209 -219 1559 2 1558 3&#10;41 22 c67 36 101 70 133 135 l31 61 0 1592 c0 1766 5 1641 -66 1724 -20 23&#10;-57 53 -82 69 l-47 27 -2415 2 -2415 3 -50 -24z" style="fill: rgb(255, 255, 255);"/>
    <path d="M1562 3990 c-249 -65 -426 -265 -462 -522 -55 -379 266 -720 651&#10;-694 164 11 295 73 409 192 113 119 170 262 170 424 0 106 -20 190 -64 278&#10;-133 260 -427 394 -704 322z" style="fill: rgb(255, 255, 255);"/>
    <path d="M3715 3609 c-44 -17 -113 -85 -609 -603 l-560 -584 -55 25 c-219 98&#10;-376 137 -663 164 -354 34 -809 -91 -1134 -312 -121 -83 -173 -134 -206 -202&#10;-14 -29 -57 -187 -97 -357 -40 -168 -75 -315 -78 -327 l-5 -23 1088 0 1089 0&#10;309 361 c213 248 463 523 802 880 287 302 503 537 516 562 15 29 23 66 26 123&#10;4 72 1 89 -20 135 -33 71 -99 134 -165 159 -70 26 -171 26 -238 -1z" style="fill: rgb(255, 255, 255);"/>
  </g>
</svg>